<svg xmlns="http://www.w3.org/2000/svg" viewBox="0 0 387 90"><path d="M 2.0828125 38.23337068023682 Q 2.08 38.23 3.45 38.2 4.81 38.16 7 38.21 9.19 38.26 12.45 38.14 15.7 38.02 21.2 37.42 26.7 36.83 31.18 36.08 35.67 35.34 39.92 34.47 44.17 33.6 48.18 32.82 52.2 32.03 55.51 31.39 58.82 30.75 61.53 30.13 64.25 29.51 66.7 28.91 69.15 28.3 71.14 27.83 73.14 27.36 74.65 27 76.16 26.64 77.95 26.21 79.75 25.79 80.18 25.9 80.61 26 80.78 26.42 80.94 26.83 80.71 27.21 80.47 27.58 80.02 27.61 79.58 27.64 79.3 27.3 79.01 26.96 79.12 26.53 79.23 26.1 79.64 25.93 80.06 25.77 80.43 26 80.81 26.24 80.84 26.68 80.87 27.13 80.53 27.41 80.18 27.7 78.36 27.96 76.53 28.23 75.02 28.57 73.51 28.92 71.52 29.39 69.53 29.86 67.07 30.46 64.61 31.07 61.87 31.69 59.12 32.32 55.81 32.96 52.5 33.61 48.5 34.39 44.49 35.16 40.21 36.04 35.93 36.91 31.4 37.67 26.87 38.42 21.31 39.02 15.74 39.62 12.47 39.78 9.19 39.94 7 39.99 4.81 40.04 3.45 40 2.08 39.97 1.69 39.97 1.3 39.97 1.05 39.88 0.79 39.8 0.63 39.58 0.48 39.37 0.48 39.1 0.48 38.83 0.63 38.62 0.79 38.4 1.05 38.32 1.3 38.23 1.69 38.23 Z"></path><path d="M 44.39663095283508 35.7421875 Q 44.4 35.74 44.49 37.28 44.59 38.81 44.62 40.91 44.66 43.02 44.63 44.65 44.6 46.29 44.55 48.18 44.49 50.07 44.45 52 44.41 53.94 44.43 55.65 44.44 57.36 44.46 59 44.47 60.63 44.48 62.29 44.49 63.95 44.46 65.79 44.44 67.64 44.39 69.7 44.33 71.75 44.41 73.01 44.49 74.26 44.62 75.57 44.75 76.89 45.49 78.54 46.23 80.2 45.95 80.76 45.67 81.31 45.05 81.4 44.44 81.5 44.01 81.06 43.57 80.62 43.66 80.01 43.76 79.4 44.31 79.12 44.86 78.84 45.42 79.12 45.97 79.4 46.06 80.01 46.16 80.62 45.72 81.06 45.29 81.5 44.67 81.4 44.06 81.31 43.78 80.76 43.5 80.2 42.95 78.54 42.4 76.89 42.46 75.57 42.51 74.26 42.59 73.01 42.67 71.75 42.61 69.7 42.56 67.64 42.54 65.79 42.51 63.95 42.52 62.29 42.53 60.63 42.54 59 42.56 57.36 42.57 55.65 42.59 53.94 42.55 52 42.51 50.07 42.45 48.18 42.4 46.29 42.37 44.65 42.34 43.02 42.38 40.91 42.41 38.81 42.51 37.28 42.6 35.74 42.6 35.27 42.6 34.8 42.69 34.54 42.77 34.27 43 34.11 43.22 33.95 43.5 33.95 43.78 33.95 44 34.11 44.23 34.27 44.31 34.54 44.4 34.8 44.4 35.27 Z"></path><path d="M 57.27417177734375 39.55625 Q 57.27 39.56 57.34 40.34 57.4 41.13 57.46 42.39 57.51 43.65 57.57 45.44 57.62 47.24 57.64 48.36 57.65 49.48 57.65 50.71 57.65 51.95 57.65 53.27 57.64 54.59 57.63 55.91 57.63 57.22 57.64 58.43 57.64 59.64 57.66 60.75 57.67 61.86 57.68 62.89 57.7 63.92 57.71 64.92 57.72 65.93 57.74 67.06 57.76 68.19 57.79 69.62 57.82 71.05 57.86 72.21 57.89 73.37 57.9 74.59 57.92 75.8 57.91 77.41 57.9 79.01 57.9 80.65 57.91 82.29 57.68 83.17 57.46 84.05 56.75 83.76 56.05 83.48 56.33 82.28 56.61 81.08 56.99 79.35 57.38 77.61 57.75 75.84 58.12 74.06 58.27 72.76 58.43 71.45 58.56 70.22 58.7 68.98 59.05 67.96 59.4 66.94 60.26 66.12 61.12 65.3 62.23 65.13 63.34 64.97 64.58 64.95 65.81 64.93 67.25 65.28 68.68 65.62 69.69 66.82 70.71 68.03 71.03 69.07 71.35 70.11 71.47 71.32 71.59 72.54 71.62 74.21 71.64 75.88 71.64 77.47 71.64 79.06 71.73 80.36 71.83 81.66 72.35 82.39 72.88 83.13 73.97 82.93 75.06 82.72 76.32 82.09 77.58 81.45 78.65 80.61 79.71 79.78 80.8 78.77 81.89 77.76 82.55 76.84 83.2 75.92 83.65 74.8 84.11 73.68 84.33 72.47 84.55 71.26 84.58 69.86 84.62 68.45 84.48 67.28 84.34 66.11 84.03 64.95 83.71 63.79 83.81 63.29 83.91 62.79 84.29 62.45 84.67 62.1 85.18 62.05 85.69 61.99 86.13 62.24 86.58 62.5 86.54 62.8 86.51 63.11 86.37 64.43 86.24 65.75 86.15 67.18 86.05 68.62 86.01 69.77 85.97 70.93 85.96 72.37 85.96 73.8 86 74.95 86.05 76.09 86.34 77.26 86.62 78.44 87.28 79.48 87.94 80.52 88.86 81.07 89.78 81.62 91.02 82.01 92.25 82.4 93.67 82.53 95.09 82.65 96.54 82.6 97.99 82.55 99.32 82.08 100.65 81.62 101.67 80.7 102.7 79.78 103.74 78.26 104.77 76.75 105.67 75.14 106.57 73.52 107.1 73.21 107.64 72.9 108.2 73.15 108.77 73.4 108.9 74.01 109.03 74.61 108.61 75.07 108.2 75.53 107.59 75.47 106.97 75.4 106.66 74.87 106.35 74.33 106.6 73.77 106.85 73.21 107.46 73.08 108.06 72.95 108.52 73.36 108.98 73.77 108.92 74.39 108.85 75 107.9 76.59 106.94 78.17 106.24 79.2 105.55 80.22 104.75 81.14 103.95 82.05 102.75 82.95 101.55 83.84 99.89 84.52 98.23 85.2 96.63 85.43 95.03 85.67 93.19 85.55 91.35 85.43 89.76 84.93 88.18 84.43 86.84 83.54 85.5 82.65 84.67 81.52 83.85 80.39 83.42 79.03 82.99 77.68 82.84 76.34 82.68 74.99 82.66 73.84 82.65 72.68 82.66 71.57 82.68 70.46 82.74 69.31 82.81 68.15 82.94 66.92 83.08 65.69 83.4 64.53 83.73 63.36 83.82 63.08 83.91 62.79 84.29 62.45 84.67 62.1 85.18 62.05 85.69 61.99 86.13 62.24 86.58 62.5 86.79 62.96 87 63.43 87.33 65.02 87.65 66.61 87.64 68.05 87.63 69.49 87.5 70.75 87.38 72.01 87.01 73.36 86.64 74.71 85.94 76.07 85.25 77.43 84.45 78.46 83.65 79.49 82.56 80.67 81.47 81.84 80.33 82.9 79.18 83.95 77.29 84.92 75.41 85.89 73.8 86.04 72.19 86.19 71 85.48 69.82 84.78 69.3 83.81 68.78 82.85 68.68 81.65 68.57 80.45 68.57 78.98 68.56 77.51 68.55 75.93 68.53 74.34 68.44 72.86 68.35 71.39 67.69 70.04 67.03 68.7 65.97 68.38 64.9 68.06 63.69 68.01 62.47 67.96 61.87 68.68 61.27 69.4 60.98 70.6 60.7 71.8 60.47 73.1 60.24 74.41 60.03 76.19 59.83 77.97 59.69 79.8 59.55 81.63 59.11 83.5 58.66 85.38 57.57 85.93 56.48 86.48 55.78 85.58 55.09 84.68 54.99 83.49 54.89 82.29 54.9 80.65 54.9 79.01 54.89 77.41 54.88 75.8 54.9 74.59 54.91 73.37 54.94 72.21 54.98 71.05 55.01 69.62 55.04 68.19 55.06 67.06 55.08 65.93 55.09 64.92 55.1 63.92 55.12 62.89 55.13 61.86 55.14 60.75 55.16 59.64 55.16 58.43 55.17 57.22 55.17 55.91 55.16 54.59 55.15 53.27 55.15 51.95 55.15 50.71 55.15 49.48 55.16 48.36 55.18 47.24 55.23 45.44 55.29 43.65 55.34 42.39 55.4 41.13 55.46 40.34 55.53 39.56 55.53 39.23 55.53 38.9 55.61 38.64 55.69 38.39 55.91 38.23 56.13 38.07 56.4 38.07 56.67 38.07 56.89 38.23 57.11 38.39 57.19 38.64 57.27 38.9 57.27 39.23 Z"></path><path d="M 151.94398124091688 42.387060546875 Q 151.94 42.39 151.88 41.85 151.81 41.31 151.75 40.69 151.69 40.06 151.62 39.18 151.56 38.29 151.39 36.99 151.23 35.69 150.63 34.26 150.03 32.84 148.99 31.31 147.96 29.79 147.05 29.03 146.14 28.27 144.74 27.85 143.34 27.42 141.88 27.39 140.41 27.36 139.4 27.61 138.38 27.86 137.31 28.56 136.24 29.27 135.12 30.27 134.01 31.26 133.13 32.32 132.26 33.37 131.41 34.79 130.56 36.21 129.73 38.16 128.9 40.1 128.17 41.99 127.45 43.89 127.11 45.4 126.77 46.91 126.61 48.09 126.45 49.28 126.32 50.47 126.2 51.66 126.11 52.88 126.02 54.1 125.98 55.31 125.94 56.53 125.94 57.72 125.94 58.91 125.94 60.1 125.95 61.28 125.95 62.43 125.95 63.58 125.93 64.84 125.92 66.1 126.08 67.68 126.23 69.25 126.89 70.28 127.54 71.31 128.53 72.18 129.51 73.05 130.62 73.64 131.73 74.23 133.35 74.62 134.96 75.01 137.11 75.16 139.26 75.31 140.75 75.19 142.23 75.06 143.35 74.66 144.47 74.25 145.58 73.49 146.68 72.73 147.65 71.92 148.62 71.11 149.43 70.19 150.24 69.27 150.74 68.2 151.23 67.13 150.95 66.1 150.67 65.08 149.7 64.52 148.73 63.96 147.57 63.84 146.42 63.72 145.3 63.67 144.18 63.63 143.04 63.62 141.91 63.61 140.87 63.62 139.83 63.63 139.13 63.27 138.43 62.91 138.31 62.13 138.19 61.36 138.75 60.81 139.31 60.25 140.08 60.38 140.86 60.5 141.21 61.21 141.56 61.91 141.2 62.61 140.85 63.3 140.07 63.42 139.29 63.54 138.74 62.99 138.19 62.43 138.31 61.65 138.44 60.88 139.14 60.52 139.84 60.17 141.42 60.18 143.01 60.2 144.2 60.23 145.39 60.26 146.53 60.28 147.68 60.31 148.74 60.46 149.81 60.61 150.85 60.98 151.88 61.36 152.85 62.32 153.82 63.28 154.12 64.42 154.42 65.57 154.37 66.63 154.31 67.7 153.87 68.8 153.43 69.91 152.68 70.94 151.92 71.96 151.12 72.71 150.31 73.45 149.22 74.22 148.14 74.99 146.7 75.79 145.26 76.58 143.9 77 142.54 77.43 140.9 77.67 139.26 77.9 137.67 77.98 136.07 78.05 134.79 77.94 133.51 77.84 131.92 77.35 130.33 76.86 129.03 76.11 127.73 75.37 126.49 74.16 125.25 72.95 124.42 71.29 123.59 69.64 123.45 67.84 123.32 66.04 123.37 64.8 123.42 63.55 123.44 62.41 123.46 61.28 123.47 60.08 123.48 58.88 123.51 57.65 123.53 56.42 123.6 55.16 123.66 53.9 123.79 52.64 123.91 51.37 124.09 50.15 124.27 48.92 124.51 47.69 124.75 46.47 125.11 44.87 125.46 43.27 125.95 41.27 126.44 39.28 126.9 37.62 127.36 35.97 128.12 34.46 128.89 32.94 129.84 31.59 130.8 30.24 131.91 29.06 133.03 27.89 134.41 26.79 135.8 25.7 137.43 25.04 139.06 24.38 140.4 24.3 141.73 24.21 143.07 24.34 144.4 24.46 145.46 24.79 146.53 25.11 147.47 25.69 148.41 26.27 149.24 27.17 150.07 28.08 151.05 29.27 152.03 30.46 152.75 31.84 153.48 33.21 153.77 34.47 154.06 35.73 154.05 37.01 154.04 38.29 153.98 39.18 153.91 40.06 153.85 40.69 153.79 41.31 153.72 41.85 153.66 42.39 153.66 42.59 153.66 42.8 153.57 43.05 153.49 43.3 153.28 43.46 153.06 43.61 152.8 43.61 152.54 43.61 152.32 43.46 152.11 43.3 152.03 43.05 151.94 42.8 151.94 42.59 Z"></path><path d="M 150.73871304819613 42.83492174912123 Q 150.74 42.83 151 42.8 151.26 42.77 151.49 42.89 151.72 43.02 151.83 43.26 151.94 43.49 151.89 43.75 151.84 44.01 151.65 44.19 151.46 44.37 151.2 44.4 150.94 44.43 150.71 44.31 150.48 44.18 150.37 43.94 150.26 43.71 150.31 43.45 150.36 43.19 150.55 43.01 150.74 42.83 150.74 42.83 Z"></path><path d="M 173.248828125 66.36730933416038 Q 173.25 66.37 172.34 66.45 171.43 66.53 170.14 66.66 168.85 66.79 167.89 67.18 166.93 67.57 166.26 68.49 165.59 69.42 165.07 70.53 164.55 71.64 164.14 73.03 163.74 74.42 163.59 75.66 163.45 76.89 163.72 78.11 163.98 79.32 165.21 80.12 166.43 80.92 167.73 81.08 169.03 81.24 170.18 81.13 171.33 81.02 172.03 80.32 172.72 79.63 172.84 78.48 172.96 77.33 172.97 76.22 172.98 75.1 172.87 74.03 172.77 72.96 172.18 71.72 171.59 70.48 171.87 69.78 172.16 69.07 172.89 68.88 173.63 68.7 174.22 69.19 174.8 69.68 174.75 70.44 174.7 71.2 174.05 71.6 173.41 72 172.7 71.72 171.99 71.44 171.81 70.7 171.62 69.96 172.11 69.38 172.6 68.79 173.36 68.84 174.12 68.9 174.52 69.54 174.93 70.19 175.53 71.99 176.13 73.8 176.17 75.09 176.21 76.38 176.14 77.6 176.07 78.81 175.72 80.13 175.36 81.45 174.45 82.47 173.55 83.49 172.41 83.83 171.27 84.18 170 84.14 168.72 84.11 167.13 83.82 165.53 83.53 163.76 82.83 161.99 82.12 161.22 81.2 160.46 80.28 160.39 79.18 160.33 78.08 160.41 76.65 160.48 75.22 160.84 73.62 161.2 72.02 161.78 70.49 162.36 68.96 163.07 67.81 163.78 66.66 164.77 65.77 165.77 64.89 167.19 64.55 168.61 64.21 170.02 64.24 171.43 64.27 172.34 64.35 173.25 64.43 174.07 64.43 174.9 64.43 175.18 64.53 175.47 64.62 175.64 64.86 175.82 65.1 175.82 65.4 175.82 65.7 175.64 65.94 175.47 66.18 175.18 66.27 174.9 66.37 174.07 66.37 Z"></path><path d="M 190.62905754888058 77.69921875 Q 190.63 77.7 190.55 76.55 190.46 75.4 190.45 73.97 190.44 72.53 190.49 70.59 190.55 68.65 190.61 66.28 190.67 63.92 190.69 60.41 190.7 56.89 190.7 51.06 190.7 45.24 190.7 38.79 190.7 32.35 190.68 28.02 190.66 23.69 190.58 20.96 190.5 18.23 190.42 15.98 190.33 13.73 190.28 12.04 190.23 10.35 190.18 8.48 190.13 6.6 190.28 6.27 190.44 5.94 190.79 5.88 191.15 5.81 191.41 6.05 191.68 6.3 191.63 6.66 191.59 7.02 191.27 7.2 190.95 7.37 190.63 7.22 190.3 7.07 190.23 6.71 190.16 6.35 190.41 6.09 190.65 5.82 191.02 5.87 191.38 5.91 191.55 6.23 191.73 6.55 191.78 8.42 191.83 10.3 191.88 11.98 191.93 13.67 192.02 15.92 192.1 18.18 192.18 20.93 192.26 23.68 192.28 28.01 192.3 32.35 192.3 38.79 192.3 45.24 192.3 51.06 192.3 56.89 192.31 60.41 192.33 63.92 192.39 66.28 192.45 68.65 192.51 70.59 192.56 72.53 192.55 73.97 192.54 75.4 192.45 76.55 192.37 77.7 192.37 78.05 192.37 78.4 192.29 78.66 192.2 78.91 191.99 79.07 191.77 79.23 191.5 79.23 191.23 79.23 191.01 79.07 190.8 78.91 190.71 78.66 190.63 78.4 190.63 78.05 Z"></path><path d="M 213.27470703125 69.06171415740187 Q 213.27 69.06 212.36 69.15 211.45 69.24 210.43 69.29 209.41 69.35 208.28 69.69 207.15 70.03 206.56 71.16 205.97 72.29 205.9 73.38 205.83 74.48 206.03 75.46 206.23 76.44 207.14 76.77 208.05 77.11 209.01 76.32 209.96 75.53 211.06 74.21 212.15 72.89 213.01 71.38 213.87 69.88 214.25 68.42 214.62 66.96 214.74 65.2 214.86 63.44 214.9 62.27 214.93 61.11 214.94 59.91 214.94 58.7 214.92 57.51 214.89 56.31 214.75 55.14 214.6 53.97 214.36 52.83 214.11 51.68 213.86 50.52 213.6 49.37 213.35 48.26 213.09 47.15 212.8 46.1 212.5 45.05 211.94 43.13 211.38 41.2 211.49 40.76 211.6 40.31 211.95 40.02 212.3 39.73 212.76 39.7 213.21 39.67 213.6 39.91 213.98 40.15 213.99 40.64 213.99 41.13 213.97 43.07 213.94 45 213.83 46.86 213.72 48.71 213.67 50.49 213.63 52.26 213.62 54.1 213.6 55.94 213.7 57.67 213.79 59.4 213.97 61.02 214.15 62.65 214.37 64.13 214.58 65.62 214.82 66.9 215.05 68.18 215.41 69.39 215.76 70.59 216.38 72.05 217.01 73.51 217.65 74.6 218.3 75.7 219.05 76.61 219.79 77.52 220.87 78.23 221.94 78.95 223.29 79.14 224.64 79.34 226.24 79.01 227.84 78.68 228.91 77.67 229.98 76.66 230.42 75.44 230.86 74.22 231.06 73.05 231.26 71.89 231.31 70.76 231.36 69.64 231.39 68.38 231.41 67.12 231.53 66.39 231.65 65.66 231.99 66.77 232.33 67.87 232.15 69.18 231.96 70.49 232.01 71.66 232.05 72.83 232.6 73.75 233.16 74.67 234.47 75.27 235.78 75.86 237.2 76.02 238.62 76.17 239.79 76.15 240.96 76.14 242.08 75.73 243.2 75.31 244.27 73.96 245.34 72.62 245.78 71.48 246.22 70.35 246.49 69.05 246.76 67.75 246.89 66.61 247.02 65.47 247.2 64.33 247.39 63.19 247.49 62.69 247.6 62.18 247.85 61.75 248.11 61.31 248.57 61.11 249.03 60.9 249.52 61.01 250.02 61.12 250.35 61.5 250.69 61.87 250.73 62.2 250.77 62.53 250.88 63.86 250.98 65.19 250.89 66.77 250.8 68.35 250.71 70.45 250.63 72.55 250.77 74.36 250.92 76.16 251.23 77.35 251.53 78.53 252.03 78.99 252.53 79.46 253.07 78.15 253.61 76.84 254.3 75.47 254.99 74.1 255.66 72.75 256.33 71.4 256.97 70.18 257.6 68.96 258.6 68.11 259.59 67.25 260.96 67.23 262.32 67.21 263.06 68.13 263.8 69.04 264.62 70.2 265.43 71.36 266.52 72.05 267.62 72.73 268.9 72.8 270.19 72.86 271.27 72.6 272.34 72.34 273.19 71.68 274.05 71.01 274.97 70.73 275.89 70.45 276.64 70.28 277.39 70.11 277.97 70.62 278.55 71.13 278.47 71.89 278.4 72.66 277.74 73.05 277.08 73.44 276.38 73.14 275.67 72.84 275.5 72.09 275.33 71.34 275.84 70.76 276.35 70.18 277.11 70.25 277.88 70.32 278.27 70.98 278.66 71.64 278.36 72.35 278.05 73.06 277.11 73.31 276.17 73.57 274.92 74.47 273.66 75.37 272.36 75.78 271.05 76.19 269.97 76.22 268.9 76.25 267.76 76.12 266.63 75.98 265.58 75.45 264.53 74.92 263.61 74.11 262.69 73.3 261.59 72.33 260.5 71.36 259.75 72.08 259 72.8 258.32 74.13 257.64 75.46 256.93 76.8 256.22 78.15 255.44 79.51 254.67 80.87 253.33 81.56 252 82.24 251.08 81.66 250.16 81.08 249.77 79.99 249.39 78.89 249.2 77.64 249.02 76.38 248.77 74.5 248.52 72.63 248.28 70.5 248.04 68.37 247.92 66.43 247.8 64.49 247.91 63.18 248.02 61.87 248.06 61.59 248.11 61.31 248.57 61.11 249.03 60.9 249.52 61.01 250.02 61.12 250.35 61.5 250.69 61.87 250.74 62.38 250.79 62.88 250.41 64.45 250.02 66.02 249.84 67.12 249.66 68.23 249.28 69.76 248.9 71.29 248.42 72.65 247.94 74.02 247.29 75.27 246.63 76.52 245.23 77.63 243.82 78.73 242.44 79.06 241.06 79.38 239.8 79.4 238.54 79.41 237.11 79.3 235.68 79.2 234.37 78.77 233.05 78.35 231.84 77.56 230.62 76.77 229.83 75.49 229.04 74.22 228.9 72.93 228.76 71.65 228.86 70.22 228.96 68.8 229.17 67.68 229.37 66.56 229.79 65.37 230.21 64.19 231.61 63.58 233 62.96 233.71 63.76 234.42 64.55 234.5 65.86 234.58 67.16 234.52 68.44 234.47 69.72 234.36 71.03 234.26 72.34 233.95 73.78 233.64 75.22 232.96 76.81 232.27 78.39 231.47 79.4 230.67 80.41 229.53 81.1 228.39 81.78 226.52 82.11 224.64 82.44 223.01 82.27 221.37 82.1 220.27 81.57 219.17 81.04 218.3 80.19 217.43 79.34 216.68 78.24 215.94 77.13 215.29 75.82 214.63 74.51 214.07 72.84 213.5 71.17 213.21 69.85 212.92 68.53 212.74 67.21 212.56 65.88 212.39 64.37 212.21 62.85 212.05 61.18 211.88 59.51 211.78 57.73 211.67 55.96 211.62 54.11 211.57 52.26 211.54 50.48 211.5 48.7 211.41 46.81 211.31 44.92 211.41 43.07 211.52 41.22 211.56 40.77 211.6 40.31 211.95 40.02 212.3 39.73 212.76 39.7 213.21 39.67 213.6 39.91 213.98 40.15 214.15 40.57 214.32 41 214.69 42.69 215.06 44.38 215.32 45.49 215.59 46.59 215.83 47.71 216.08 48.83 216.33 50 216.57 51.16 216.83 52.42 217.09 53.67 217.24 54.97 217.4 56.26 217.42 57.49 217.44 58.73 217.42 59.97 217.41 61.21 217.35 62.41 217.29 63.6 217.19 64.72 217.09 65.83 216.89 66.97 216.7 68.1 216.23 69.47 215.76 70.83 214.94 72.57 214.12 74.31 213.08 75.98 212.04 77.65 210.93 78.76 209.82 79.88 208.41 80.24 207 80.6 205.8 80.37 204.6 80.14 203.79 79.19 202.98 78.25 202.86 76.95 202.74 75.64 202.83 74.34 202.93 73.04 203.2 71.66 203.48 70.28 204.2 69.11 204.93 67.94 205.95 67.5 206.98 67.06 208.19 67.05 209.4 67.05 210.43 67.11 211.45 67.16 212.36 67.25 213.27 67.34 213.54 67.34 213.8 67.34 214.05 67.42 214.31 67.5 214.46 67.72 214.62 67.93 214.62 68.2 214.62 68.47 214.46 68.68 214.31 68.9 214.05 68.98 213.8 69.06 213.54 69.06 Z"></path><path d="M 295.2849691543579 38.7046875 Q 295.28 38.7 295.31 40.14 295.34 41.57 295.26 44.41 295.18 47.26 295.08 51.01 294.97 54.75 294.68 58.22 294.39 61.68 294.15 63.9 293.91 66.11 293.62 67.96 293.33 69.81 293.05 71.28 292.78 72.74 292.56 74.1 292.35 75.45 292.16 77.01 291.96 78.57 291.89 79.66 291.81 80.76 291.86 81.97 291.9 83.18 291.89 83.87 291.88 84.57 291.64 83.15 291.4 81.73 291.7 80.39 292.01 79.06 292.41 77.28 292.82 75.49 293.48 72.76 294.14 70.02 294.65 67.16 295.16 64.3 295.52 61.89 295.89 59.49 296.12 57.19 296.35 54.9 296.4 53.42 296.44 51.94 296.4 50.73 296.35 49.52 296.27 47.85 296.19 46.18 296.24 44.73 296.29 43.29 296.5 42.06 296.71 40.83 297.02 39.68 297.34 38.53 297.9 37.51 298.46 36.49 299.4 36 300.34 35.5 301.35 36.26 302.35 37.02 302.8 38.22 303.25 39.42 303.79 41.03 304.33 42.63 304.9 44.45 305.47 46.27 305.86 47.52 306.26 48.76 306.72 49.91 307.19 51.07 307.75 52.45 308.32 53.83 309.01 55.46 309.7 57.08 310.43 58.7 311.16 60.31 311.88 61.76 312.59 63.2 313.33 64.49 314.07 65.78 314.92 67.1 315.77 68.41 316.64 69.69 317.51 70.98 318.24 72.02 318.96 73.06 319.69 73.92 320.43 74.79 322.04 76.02 323.65 77.25 323.79 77.84 323.94 78.43 323.54 78.9 323.15 79.36 322.54 79.32 321.94 79.27 321.61 78.75 321.29 78.23 321.52 77.67 321.75 77.11 322.35 76.96 322.94 76.82 323.4 77.21 323.87 77.6 323.82 78.21 323.78 78.82 323.26 79.14 322.74 79.46 322.18 79.23 321.61 79 320.08 77.63 318.54 76.25 317.83 75.27 317.11 74.29 316.44 73.22 315.77 72.15 314.89 70.85 314.02 69.55 313.13 68.18 312.24 66.81 311.5 65.46 310.75 64.11 310.03 62.66 309.31 61.2 308.5 59.61 307.7 58.02 306.88 56.43 306.06 54.84 305.4 53.47 304.74 52.1 304.2 50.89 303.66 49.67 303.18 48.42 302.69 47.17 302.03 45.41 301.37 43.65 300.79 42.07 300.2 40.49 300.48 39.4 300.75 38.31 300.45 38.85 300.15 39.38 299.79 40.41 299.42 41.43 299.13 42.53 298.85 43.63 298.67 44.94 298.49 46.25 298.36 47.9 298.23 49.54 298.16 50.77 298.08 52 298.01 53.53 297.94 55.05 297.71 57.39 297.47 59.73 297.1 62.15 296.73 64.57 296.24 67.44 295.75 70.31 295.44 73.09 295.12 75.88 294.91 77.72 294.7 79.56 294.5 80.96 294.3 82.36 293.91 84.17 293.53 85.99 292.61 87.1 291.69 88.22 290.63 87.28 289.57 86.34 289.28 84.79 288.98 83.24 289.07 81.94 289.15 80.64 289.4 79.41 289.65 78.18 290.06 76.61 290.46 75.04 290.81 73.73 291.15 72.42 291.45 70.99 291.75 69.56 292.03 67.75 292.32 65.94 292.56 63.74 292.8 61.54 293.08 58.13 293.37 54.71 293.48 50.98 293.58 47.25 293.52 44.41 293.46 41.57 293.49 40.14 293.52 38.7 293.52 38.25 293.52 37.8 293.6 37.54 293.68 37.28 293.91 37.12 294.13 36.96 294.4 36.96 294.67 36.96 294.89 37.12 295.12 37.28 295.2 37.54 295.28 37.8 295.28 38.25 Z"></path><path d="M 298.32500000000005 66.2 Q 298.33 66.2 298.33 66.2 298.33 66.2 298.33 66.2 298.33 66.2 298.33 66.2 298.33 66.2 298.4 66.09 298.47 65.98 298.99 65.63 299.52 65.27 300.66 65.19 301.81 65.1 302.83 65.03 303.86 64.96 305.41 64.77 306.96 64.58 309.59 64.34 312.21 64.09 313.69 63.85 315.17 63.6 316.27 63.36 317.37 63.11 318.47 62.84 319.57 62.58 320.52 62.3 321.47 62.03 322.01 62.18 322.55 62.34 322.75 62.87 322.95 63.39 322.63 63.86 322.32 64.34 321.76 64.36 321.19 64.38 320.84 63.94 320.49 63.5 320.64 62.95 320.8 62.41 321.33 62.21 321.85 62.02 322.33 62.33 322.8 62.64 322.82 63.21 322.84 63.77 322.4 64.12 321.96 64.47 320.98 64.61 320.01 64.76 318.85 64.92 317.69 65.08 316.55 65.2 315.41 65.33 313.93 65.51 312.45 65.69 309.85 66.23 307.25 66.77 305.6 67.03 303.94 67.29 302.87 67.3 301.81 67.3 300.66 67.21 299.52 67.13 298.99 66.77 298.47 66.42 298.4 66.31 298.33 66.2 298.33 66.2 298.33 66.2 298.33 66.2 298.33 66.2 298.33 66.2 298.33 66.2 298.63 66.25 298.93 66.31 298.9 66.28 298.88 66.25 298.87 66.2 298.87 66.16 298.9 66.13 298.92 66.1 298.96 66.08 299 66.07 299.04 66.08 299.07 66.09 298.7 66.15 Z"></path><path d="M 328.1765395507813 63.26875 Q 328.18 63.27 328.24 64.26 328.3 65.26 328.33 66.62 328.35 67.97 328.32 69.74 328.29 71.5 328.33 72.82 328.36 74.14 328.39 75.36 328.42 76.59 328.46 77.83 328.5 79.08 328.56 80.71 328.61 82.34 328.67 83.7 328.73 85.06 328.6 85.48 328.46 85.9 328.1 86.16 327.74 86.42 327.3 86.42 326.86 86.42 326.5 86.16 326.14 85.9 326.1 85.63 326.06 85.36 325.93 84.3 325.8 83.23 325.77 82.15 325.74 81.06 325.87 79.76 326.01 78.46 326.73 76.94 327.44 75.41 328.72 73.71 330 72.01 330.85 70.98 331.7 69.94 332.56 68.88 333.43 67.82 334.42 66.76 335.4 65.7 336.36 65.06 337.32 64.42 338.42 64.25 339.53 64.08 340.6 64.27 341.66 64.46 342.63 65.44 343.59 66.42 343.91 67.12 344.23 67.82 343.85 68.49 343.47 69.15 342.71 69.24 341.95 69.33 341.43 68.76 340.91 68.2 341.06 67.45 341.22 66.69 341.91 66.38 342.61 66.06 343.28 66.43 343.95 66.81 344.03 67.57 344.12 68.34 343.56 68.85 342.99 69.37 342.24 69.22 341.49 69.07 340.33 68.2 339.17 67.32 338.24 67.58 337.32 67.84 336.39 68.68 335.47 69.52 334.64 70.56 333.81 71.6 333.03 72.66 332.25 73.71 331.49 74.83 330.73 75.95 330.03 77.33 329.33 78.71 329.11 79.92 328.9 81.13 328.85 82.18 328.8 83.23 328.67 84.3 328.54 85.36 328.5 85.63 328.46 85.9 328.1 86.16 327.74 86.42 327.3 86.42 326.86 86.42 326.5 86.16 326.14 85.9 326 85.48 325.87 85.06 325.93 83.7 325.99 82.34 326.04 80.71 326.1 79.08 326.14 77.83 326.18 76.59 326.21 75.36 326.24 74.14 326.27 72.82 326.31 71.5 326.28 69.74 326.25 67.97 326.27 66.62 326.3 65.26 326.36 64.26 326.42 63.27 326.42 62.88 326.42 62.5 326.51 62.24 326.59 61.98 326.81 61.83 327.03 61.67 327.3 61.67 327.57 61.67 327.79 61.83 328.01 61.98 328.09 62.24 328.18 62.5 328.18 62.88 Z"></path><path d="M 343.4547001586914 68.196875 Q 343.45 68.2 343.53 68.96 343.6 69.72 343.72 70.73 343.85 71.74 344.15 72.9 344.45 74.06 344.89 75.26 345.33 76.46 345.65 77.77 345.96 79.07 346.27 80.59 346.58 82.1 346.91 83.31 347.24 84.52 347.33 84.99 347.41 85.45 346.96 84.27 346.52 83.08 346.61 82.02 346.7 80.95 346.77 79.8 346.84 78.65 346.87 77.53 346.89 76.42 346.9 75.35 346.91 74.29 346.91 73.06 346.91 71.84 346.89 70.23 346.86 68.63 346.83 67.44 346.8 66.25 346.94 65.08 347.08 63.92 347.81 63.02 348.54 62.13 349.59 61.99 350.63 61.86 351.77 62.53 352.9 63.21 353.64 64.87 354.38 66.53 354.74 68.21 355.09 69.89 355.28 71.08 355.48 72.27 355.83 73.87 356.17 75.47 356.47 75.92 356.76 76.37 357.13 74.69 357.51 73 358.06 71.36 358.61 69.73 359.07 68.18 359.52 66.63 359.85 65.47 360.19 64.32 360.74 63.52 361.3 62.72 362.3 62.82 363.31 62.92 364.02 64.27 364.73 65.62 365.25 67.21 365.76 68.8 366.41 70.53 367.05 72.26 367.69 73.67 368.32 75.07 368.9 75.93 369.48 76.8 370.36 77.26 371.24 77.72 372.33 77.63 373.42 77.54 375.03 76.86 376.65 76.19 377.41 76.26 378.18 76.34 378.57 77 378.96 77.67 378.65 78.37 378.34 79.08 377.59 79.24 376.83 79.41 376.26 78.9 375.68 78.38 375.76 77.62 375.84 76.85 376.5 76.46 377.17 76.07 377.87 76.38 378.58 76.69 378.74 77.44 378.9 78.2 378.39 78.77 377.88 79.35 376.69 79.89 375.5 80.44 374.42 80.69 373.33 80.94 372.12 80.91 370.91 80.89 369.8 80.53 368.7 80.17 367.83 79.37 366.95 78.56 366.34 77.48 365.73 76.39 365.06 74.84 364.39 73.3 363.95 72.17 363.51 71.04 363.18 70.08 362.84 69.13 362.56 67.67 362.28 66.22 361.94 66.71 361.6 67.21 361.19 68.79 360.78 70.37 360.35 72.04 359.92 73.71 359.54 75.49 359.17 77.27 358.84 78.44 358.51 79.61 357.34 80.26 356.18 80.9 355.29 80.35 354.41 79.81 353.99 78.69 353.58 77.56 353.23 76.05 352.88 74.53 352.51 72.71 352.14 70.89 351.72 69.2 351.31 67.51 350.74 66.29 350.16 65.06 349.98 65.66 349.8 66.26 349.77 67.45 349.74 68.63 349.71 70.24 349.69 71.84 349.69 73.06 349.69 74.29 349.69 75.37 349.69 76.45 349.7 77.6 349.7 78.76 349.68 79.94 349.66 81.13 349.62 82.29 349.58 83.45 349.44 84.58 349.3 85.71 348.82 86.72 348.33 87.73 346.95 87.58 345.56 87.43 344.92 86.39 344.27 85.35 343.94 83.98 343.6 82.61 343.34 81.2 343.07 79.79 342.82 78.55 342.56 77.3 342.21 75.99 341.86 74.68 341.69 73.28 341.52 71.88 341.56 70.8 341.6 69.72 341.67 68.96 341.75 68.2 341.75 67.95 341.75 67.7 341.83 67.45 341.91 67.2 342.12 67.04 342.34 66.89 342.6 66.89 342.86 66.89 343.08 67.04 343.29 67.2 343.37 67.45 343.45 67.7 343.45 67.95 Z"></path></svg>